<svg xmlns="http://www.w3.org/2000/svg" viewBox="0 0 684 432" width="684" height="432">
  <rect width="684" height="432" fill="#1c1917" rx="6"/>
  <style>
    text {
      font-family: 'JetBrains Mono', 'Fira Code', 'Cascadia Code', 'Menlo', 'Monaco', 'Consolas', monospace;
      font-size: 13px;
    }
  </style>

  <!--
    Each coloured run is its own <text x= y=> element.
    char width = 7.8px; x(col) = 18 + col * 7.8
    col  0 → x=18   (│ border)
    col  4 → x=49   (timestamp)
    col 10 → x=96   (energy bar)
    col 19 → x=166  (task body)
    col 45 → x=369  (right pane)
    col 76 → x=611  (closing │)
    line-height=18px; first baseline y=36
  -->

  <!-- ── ROW 1: top border ── -->
  <text x="18"  y="36"  fill="#57534e">┌──────────────────────────────────────────────────────────────────────────┐</text>

  <!-- ── ROW 2: empty ── -->
  <text x="18"  y="54"  fill="#57534e">│</text>
  <text x="611" y="54"  fill="#57534e">│</text>

  <!-- ── ROW 3: 08:00 ── -->
  <text x="18"  y="72"  fill="#57534e">│</text>
  <text x="49"  y="72"  fill="#78716c">08:00</text>
  <text x="96"  y="72"  fill="#d97706">▓▓▓▓▓▓▓▓</text>
  <text x="166" y="72"  fill="#e7e5e4">Docs update</text>
  <text x="369" y="72"  fill="#78716c"># Client Project</text>
  <text x="611" y="72"  fill="#57534e">│</text>

  <!-- ── ROW 4: 09:30 ── -->
  <text x="18"  y="90"  fill="#57534e">│</text>
  <text x="49"  y="90"  fill="#78716c">09:30</text>
  <text x="96"  y="90"  fill="#d97706">████████</text>
  <text x="166" y="90"  fill="#e7e5e4">Rhea sprint</text>
  <text x="611" y="90"  fill="#57534e">│</text>

  <!-- ── ROW 5: 10:00 Stand-up ── -->
  <text x="18"  y="108" fill="#57534e">│</text>
  <text x="49"  y="108" fill="#78716c">10:00</text>
  <text x="96"  y="108" fill="#78716c">┄┄┄┄┄┄┄┄</text>
  <text x="166" y="108" fill="#e7e5e4">Stand-up</text>
  <text x="369" y="108" fill="#78716c">Body content here...</text>
  <text x="611" y="108" fill="#57534e">│</text>

  <!-- ── ROW 6: 10:45 ── -->
  <text x="18"  y="126" fill="#57534e">│</text>
  <text x="49"  y="126" fill="#78716c">10:45</text>
  <text x="96"  y="126" fill="#d97706">▓▓▓▓▓▓</text>
  <text x="166" y="126" fill="#e7e5e4">TWCB deep work</text>
  <text x="611" y="126" fill="#57534e">│</text>

  <!-- ── ROW 7: 11:45 Triage | status in_progress ── -->
  <text x="18"  y="144" fill="#57534e">│</text>
  <text x="49"  y="144" fill="#78716c">11:45</text>
  <text x="96"  y="144" fill="#78716c">░░</text>
  <text x="166" y="144" fill="#e7e5e4">Triage</text>
  <text x="369" y="144" fill="#e7e5e4">status</text>
  <text x="416" y="144" fill="#d97706">in_progress</text>
  <text x="611" y="144" fill="#57534e">│</text>

  <!-- ── ROW 8: energy | ▓▓ deep ── -->
  <text x="18"  y="162" fill="#57534e">│</text>
  <text x="369" y="162" fill="#e7e5e4">energy</text>
  <text x="416" y="162" fill="#92400e">▓▓</text>
  <text x="432" y="162" fill="#d97706">deep</text>
  <text x="611" y="162" fill="#57534e">│</text>

  <!-- ── ROW 9: ◆ 47m unscheduled | due 2026-04-01 ── -->
  <text x="18"  y="180" fill="#57534e">│</text>
  <text x="34"  y="180" fill="#d97706">◆</text>
  <text x="42"  y="180" fill="#e7e5e4">47m unscheduled · 1 task displaced</text>
  <text x="369" y="180" fill="#e7e5e4">due</text>
  <text x="416" y="180" fill="#78716c">2026-04-01</text>
  <text x="611" y="180" fill="#57534e">│</text>

  <!-- ── ROW 10: empty ── -->
  <text x="18"  y="198" fill="#57534e">│</text>
  <text x="611" y="198" fill="#57534e">│</text>

  <!-- ── ROW 11: EDGES header ── -->
  <text x="18"  y="216" fill="#57534e">│</text>
  <text x="369" y="216" fill="#92400e">||==&gt;&gt; EDGES</text>
  <text x="611" y="216" fill="#57534e">│</text>

  <!-- ── ROW 12: ← blocks: Portfolio draft ── -->
  <text x="18"  y="234" fill="#57534e">│</text>
  <text x="369" y="234" fill="#dc2626">←</text>
  <text x="377" y="234" fill="#e7e5e4">blocks:</text>
  <text x="432" y="234" fill="#78716c">Portfolio draft</text>
  <text x="611" y="234" fill="#57534e">│</text>

  <!-- ── ROW 13: ⊘ waiting ── -->
  <text x="18"  y="252" fill="#57534e">│</text>
  <text x="369" y="252" fill="#78716c">⊘ waiting: Dan · 12d</text>
  <text x="611" y="252" fill="#57534e">│</text>

  <!-- ── ROW 14: empty ── -->
  <text x="18"  y="270" fill="#57534e">│</text>
  <text x="611" y="270" fill="#57534e">│</text>

  <!-- ── ROW 15: BUDGETS header ── -->
  <text x="18"  y="288" fill="#57534e">│</text>
  <text x="369" y="288" fill="#92400e">||==&gt;&gt; BUDGETS</text>
  <text x="611" y="288" fill="#57534e">│</text>

  <!-- ── ROW 16: ● EPA 9.5/12h ── -->
  <text x="18"  y="306" fill="#57534e">│</text>
  <text x="369" y="306" fill="#65a30d">●</text>
  <text x="377" y="306" fill="#e7e5e4">EPA</text>
  <text x="416" y="306" fill="#65a30d">9.5/12h</text>
  <text x="611" y="306" fill="#57534e">│</text>

  <!-- ── ROW 17: ◐ Records £42/£50 ── -->
  <text x="18"  y="324" fill="#57534e">│</text>
  <text x="369" y="324" fill="#d97706">◐</text>
  <text x="377" y="324" fill="#e7e5e4">Records</text>
  <text x="416" y="324" fill="#d97706">£42/£50</text>
  <text x="611" y="324" fill="#57534e">│</text>

  <!-- ── ROW 18: ○ Baby £580/£500 ── -->
  <text x="18"  y="342" fill="#57534e">│</text>
  <text x="369" y="342" fill="#dc2626">○</text>
  <text x="377" y="342" fill="#e7e5e4">Baby</text>
  <text x="416" y="342" fill="#dc2626">£580/£500</text>
  <text x="611" y="342" fill="#57534e">│</text>

  <!-- ── ROW 19: empty ── -->
  <text x="18"  y="360" fill="#57534e">│</text>
  <text x="611" y="360" fill="#57534e">│</text>

  <!-- ── ROW 20: divider ── -->
  <text x="18"  y="378" fill="#57534e">├──────────────────────────────────────────────────────────────────────────┤</text>

  <!-- ── ROW 21: capture bar ── -->
  <text x="18"  y="396" fill="#57534e">│</text>
  <text x="26"  y="396" fill="#78716c">[capture bar]</text>
  <text x="369" y="396" fill="#d97706">◆ 47m on Project (45m)</text>
  <text x="611" y="396" fill="#57534e">│</text>

  <!-- ── ROW 22: bottom border ── -->
  <text x="18"  y="414" fill="#57534e">└──────────────────────────────────────────────────────────────────────────┘</text>
</svg>
